<svg xmlns="http://www.w3.org/2000/svg" viewBox="0 0 65 65"><defs><style>.cls-1{fill:none;}.cls-2{fill:#231815;}</style></defs><title>資產 1</title><g id="圖層_2" data-name="圖層 2"><g id="圖層_1-2" data-name="圖層 1"><rect class="cls-1" width="65" height="65"/><rect class="cls-2" x="14.17" y="9.21" width="36.66" height="3.76" rx="1.88"/><rect class="cls-2" x="14.17" y="22.44" width="36.66" height="3.76" rx="1.88"/><rect class="cls-2" x="14.17" y="35.68" width="36.66" height="3.76" rx="1.88"/><path class="cls-2" d="M22.9,45.8,24,55.63H22.14l-.8-7.31h0l-2.12,7.35h-2.1L15,48.32h-.05l-.8,7.31H12.25l1.12-9.83h2.5l2.26,7.89,2.26-7.89Z"/><path class="cls-2" d="M31.64,45.8v1.41h-4v2.22h2.81v1.41H27.67v3.39h4.11v1.4h-6V45.8Z"/><path class="cls-2" d="M42.2,45.8v9.83H40.09l-4.3-7.34v7.34H33.88V45.8H36l4.3,7.35V45.8Z"/><path class="cls-2" d="M52.75,45.8v5.51a7.78,7.78,0,0,1-.21,1.9,3.61,3.61,0,0,1-.71,1.41,3,3,0,0,1-1.27.87,5.35,5.35,0,0,1-1.91.3,5.17,5.17,0,0,1-1.93-.31,3,3,0,0,1-1.27-.88,3.56,3.56,0,0,1-.69-1.42,7.58,7.58,0,0,1-.21-1.87V45.8h1.94v5.75a5.26,5.26,0,0,0,.12,1.17,2.24,2.24,0,0,0,.37.89,1.71,1.71,0,0,0,.66.56,2.36,2.36,0,0,0,1,.2,2.41,2.41,0,0,0,1-.2,1.62,1.62,0,0,0,.67-.57,2.31,2.31,0,0,0,.36-.89,5.25,5.25,0,0,0,.11-1.16V45.8Z"/></g></g></svg>